<svg xmlns="http://www.w3.org/2000/svg" width="16" height="16" viewBox="0 0 16 16">
  <rect width="16" height="16" fill="#050505"/>
  <path d="M14.054,3.462c-0.169-0.632-0.667-1.13-1.3-1.299C11.943,1.851,8,1.851,8,1.851s-3.943,0-5.088,0.312 C2.279,2.332,1.781,2.83,1.612,3.462C1.3,4.607,1.3,7,1.3,7s0,2.393,0.312,3.538c0.169,0.632,0.667,1.13,1.3,1.299 C4.057,12.149,8,12.149,8,12.149s3.943,0,5.088-0.312c0.633-0.169,1.131-0.667,1.3-1.299C14.7,9.393,14.7,7,14.7,7 S14.7,4.607,14.054,3.462z M6.5,9.35V4.65L10.5,7L6.5,9.35z" fill="#FF0000"/>
</svg>
